<svg width="16" height="16" viewBox="0 0 16 16" fill="none" xmlns="http://www.w3.org/2000/svg">
<path fill-rule="evenodd" clip-rule="evenodd" d="M4 1.99996C3.82319 1.99996 3.65362 2.0702 3.5286 2.19522C3.40357 2.32025 3.33333 2.48981 3.33333 2.66663V13.3333C3.33333 13.5101 3.40357 13.6797 3.5286 13.8047C3.65362 13.9297 3.82319 14 4 14H12C12.1768 14 12.3464 13.9297 12.4714 13.8047C12.5964 13.6797 12.6667 13.5101 12.6667 13.3333V13C12.6667 12.6318 12.9651 12.3333 13.3333 12.3333C13.7015 12.3333 14 12.6318 14 13V13.3333C14 13.8637 13.7893 14.3724 13.4142 14.7475C13.0391 15.1226 12.5304 15.3333 12 15.3333H4C3.46957 15.3333 2.96086 15.1226 2.58579 14.7475C2.21071 14.3724 2 13.8637 2 13.3333V2.66663C2 2.13619 2.21071 1.62749 2.58579 1.25241C2.96086 0.87734 3.46957 0.666626 4 0.666626H9.66667C9.84348 0.666626 10.013 0.736864 10.1381 0.861888L12.4714 3.19522C12.7318 3.45557 12.7318 3.87768 12.4714 4.13803C12.2111 4.39838 11.7889 4.39838 11.5286 4.13803L9.39052 1.99996H4ZM4.66667 12C4.66667 11.6318 4.96514 11.3333 5.33333 11.3333H6C6.36819 11.3333 6.66667 11.6318 6.66667 12C6.66667 12.3681 6.36819 12.6666 6 12.6666H5.33333C4.96514 12.6666 4.66667 12.3681 4.66667 12ZM12.9893 6.7192C13.0783 6.68234 13.1737 6.66337 13.27 6.66337C13.3663 6.66337 13.4617 6.68234 13.5507 6.7192C13.6396 6.75605 13.7205 6.81008 13.7886 6.87818C13.8567 6.94628 13.9107 7.02713 13.9476 7.11611C13.9844 7.2051 14.0034 7.30047 14.0034 7.39678C14.0034 7.49308 13.9844 7.58845 13.9476 7.67744C13.9108 7.76622 13.8569 7.84691 13.789 7.91492L13.7886 7.91537L10.9592 10.732L9.58455 11.08L9.92859 9.70737L12.7514 6.87818L12.7516 6.87794C12.8197 6.80995 12.9005 6.75601 12.9893 6.7192ZM13.27 5.33004C12.9986 5.33004 12.7298 5.38349 12.4791 5.48736C12.2283 5.59122 12.0005 5.74346 11.8086 5.93537L11.8081 5.9359L8.85473 8.8959C8.76966 8.98116 8.70928 9.08787 8.68 9.2047L8.02 11.838C7.96297 12.0656 8.02974 12.3064 8.19582 12.4721C8.36191 12.6378 8.60286 12.704 8.83028 12.6464L11.4636 11.9797C11.5796 11.9504 11.6855 11.8903 11.7703 11.8059L14.7303 8.85924L14.7314 8.85818C14.9233 8.66626 15.0756 8.43843 15.1794 8.18768C15.2833 7.93693 15.3367 7.66819 15.3367 7.39678C15.3367 7.12537 15.2833 6.85661 15.1794 6.60587C15.0756 6.35512 14.9233 6.12728 14.7314 5.93537C14.5395 5.74346 14.3117 5.59122 14.0609 5.48736C13.8102 5.38349 13.5414 5.33004 13.27 5.33004Z" fill="#020617"/>
</svg>
