<svg width="16" height="16" viewBox="0 0 16 16" fill="none" xmlns="http://www.w3.org/2000/svg">
<path fill-rule="evenodd" clip-rule="evenodd" d="M1.33329 1.33337C0.965103 1.33337 0.666626 1.63185 0.666626 2.00004V12C0.666626 12.3682 0.965103 12.6667 1.33329 12.6667H5.99996C6.35358 12.6667 6.69272 12.8072 6.94277 13.0572C7.19282 13.3073 7.33329 13.6464 7.33329 14C7.33329 14.3682 7.63177 14.6667 7.99996 14.6667C8.36815 14.6667 8.66663 14.3682 8.66663 14C8.66663 13.6464 8.8071 13.3073 9.05715 13.0572C9.3072 12.8072 9.64634 12.6667 9.99996 12.6667H14.6666C15.0348 12.6667 15.3333 12.3682 15.3333 12V2.00004C15.3333 1.63185 15.0348 1.33337 14.6666 1.33337H10.6666C9.78257 1.33337 8.93473 1.68456 8.3096 2.30968C8.19742 2.42187 8.09405 2.54123 7.99996 2.66668C7.90586 2.54123 7.8025 2.42187 7.69032 2.30968C7.06519 1.68456 6.21735 1.33337 5.33329 1.33337H1.33329ZM8.66663 11.6906C9.06856 11.4586 9.52781 11.3334 9.99996 11.3334H14V2.66671H10.6666C10.1362 2.66671 9.62748 2.87742 9.25241 3.25249C8.87734 3.62757 8.66663 4.13627 8.66663 4.66671V11.6906ZM7.33329 11.6906V4.66671C7.33329 4.13627 7.12258 3.62757 6.74751 3.25249C6.37243 2.87742 5.86373 2.66671 5.33329 2.66671H1.99996V11.3334H5.99996C6.47211 11.3334 6.93136 11.4586 7.33329 11.6906Z" fill="#020617"/>
</svg>
