<svg width="16" height="16" viewBox="0 0 16 16" fill="none" xmlns="http://www.w3.org/2000/svg">
<path fill-rule="evenodd" clip-rule="evenodd" d="M0.935425 7.9999C0.935425 4.09837 4.09825 0.935547 7.99978 0.935547C11.9013 0.935547 15.0642 4.09837 15.0642 7.9999C15.0642 11.9014 11.9013 15.0642 7.99978 15.0642C4.09825 15.0642 0.935425 11.9014 0.935425 7.9999ZM7.99978 1.94887C4.6579 1.94887 1.94875 4.65802 1.94875 7.9999C1.94875 9.57012 2.54687 11.0007 3.5277 12.0761C4.47007 10.604 6.12067 9.62669 8.00019 9.62669C9.87947 9.62669 11.5299 10.6037 12.4724 12.0756C13.4529 11.0002 14.0508 9.56987 14.0508 7.9999C14.0508 4.65802 11.3416 1.94887 7.99978 1.94887ZM11.7139 12.7773C10.9694 11.4982 9.58469 10.64 8.00019 10.64C6.4155 10.64 5.0306 11.4984 4.28629 12.7777C5.31143 13.5757 6.6001 14.0509 7.99978 14.0509C9.3997 14.0509 10.6886 13.5755 11.7139 12.7773ZM5.49327 6.93856C5.49327 5.55416 6.61554 4.43189 7.99993 4.43189C9.38433 4.43189 10.5066 5.55416 10.5066 6.93856C10.5066 8.32295 9.38433 9.44523 7.99993 9.44523C6.61554 9.44523 5.49327 8.32295 5.49327 6.93856ZM7.99993 5.44523C7.17519 5.44523 6.5066 6.11381 6.5066 6.93856C6.5066 7.76331 7.17519 8.43189 7.99993 8.43189C8.82468 8.43189 9.49327 7.76331 9.49327 6.93856C9.49327 6.11381 8.82468 5.44523 7.99993 5.44523Z" fill="#020617"/>
</svg>
